<svg width="20" height="20" viewBox="0 0 20 20" fill="none" xmlns="http://www.w3.org/2000/svg">
<path d="M15.7589 15C16.5205 16.14 16.8427 16.8358 16.572 17.4166C16.5387 17.4878 16.4998 17.5566 16.4557 17.6222C15.9769 18.3333 14.7395 18.3333 12.2648 18.3333H7.73511C5.26034 18.3333 4.02296 18.3333 3.54418 17.6222C3.49996 17.5566 3.46108 17.4878 3.42788 17.4166C3.15716 16.8358 3.47931 16.14 4.24088 15" stroke="#141B34" strokeWidth="1.25" strokeLinecap="round" strokeLinejoin="round"/>
<path d="M12.5 7.91663C12.5 9.29738 11.3807 10.4166 10 10.4166C8.61925 10.4166 7.5 9.29738 7.5 7.91663C7.5 6.53592 8.61925 5.41663 10 5.41663C11.3807 5.41663 12.5 6.53592 12.5 7.91663Z" stroke="#141B34" strokeWidth="1.25"/>
<path d="M10 1.66663C13.3823 1.66663 16.25 4.52332 16.25 7.98904C16.25 11.51 13.3357 13.9808 10.6437 15.661C10.4476 15.7739 10.2257 15.8333 10 15.8333C9.77425 15.8333 9.55242 15.7739 9.35625 15.661C6.66937 13.9644 3.75 11.5221 3.75 7.98904C3.75 4.52332 6.61767 1.66663 10 1.66663Z" stroke="#141B34" strokeWidth="1.25"/>
</svg>
